<?xml version="1.0" standalone="no"?>
<!DOCTYPE svg PUBLIC "-//W3C//DTD SVG 20010904//EN"
 "http://www.w3.org/TR/2001/REC-SVG-20010904/DTD/svg10.dtd">
<svg version="1.0" xmlns="http://www.w3.org/2000/svg"
 width="80.000000pt" height="80.000000pt" viewBox="0 0 80.000000 80.000000"
 preserveAspectRatio="xMidYMid meet">
<metadata>
Created by potrace 1.11, written by Peter Selinger 2001-2013
</metadata>
<g transform="translate(0.000000,80.000000) scale(0.100000,-0.100000)"
fill="#000000" stroke="none">
<path d="M265 763 c-40 -19 -60 -23 -100 -19 l-50 6 -20 -43 c-14 -27 -34 -49
-58 -62 -43 -23 -47 -40 -13 -49 54 -13 71 -55 81 -196 11 -152 28 -214 79
-283 24 -33 53 -50 123 -72 26 -9 58 -21 70 -27 18 -9 31 -8 60 4 21 9 59 23
85 33 67 23 93 48 127 118 30 63 36 89 46 232 4 44 11 97 16 117 9 37 49 78
75 78 27 0 13 25 -24 45 -25 14 -43 34 -56 63 l-20 42 -47 -6 c-38 -5 -58 -1
-101 18 -77 35 -201 36 -273 1z"/>
</g>
</svg>
